<?xml version="1.0" standalone="no"?>
<!DOCTYPE svg PUBLIC "-//W3C//DTD SVG 1.1//EN" "http://www.w3.org/Graphics/SVG/1.1/DTD/svg11.dtd" >
<svg xmlns="http://www.w3.org/2000/svg">
    <metadata>
        Created by FontForge 20120731 at Fri Mar 31 22:26:27 2017
        By kaptinlin,,,
    </metadata>
    <defs>
        <font id="web-icons" horiz-adv-x="512" >
            <font-face
                    font-family="web-icons"
                    font-weight="500"
                    font-stretch="normal"
                    units-per-em="512"
                    panose-1="2 0 6 3 0 0 0 0 0 0"
                    ascent="448"
                    descent="-64"
                    bbox="-1 -65 513 449.5"
                    underline-thickness="25"
                    underline-position="-52"
                    unicode-range="U+F101-F1AA"
            />
            <missing-glyph horiz-adv-x="187"
                           d="M17 0v341h136v-341h-136zM34 17h102v307h-102v-307z" />
            <glyph glyph-name=".notdef" horiz-adv-x="187"
                   d="M17 0v341h136v-341h-136zM34 17h102v307h-102v-307z" />
            <glyph glyph-name=".null" horiz-adv-x="0"
            />
            <glyph glyph-name="nonmarkingreturn" horiz-adv-x="170"
            />
            <glyph glyph-name="dashboard" unicode="&#xf101;"
                   d="M256 -64q-106 0 -181 75t-75 181t75 181t181 75t181 -75t75 -181t-75 -181t-181 -75zM256 384q-80 0 -136 -56.5t-56 -135.5q0 -73 50 -128h46q0 46 37 75l-25 90q-1 6 2 12t10 8l31 8q6 2 11.5 -1.5t7.5 -9.5l23 -86q40 -1 67.5 -29t27.5 -67h46q50 55 50 128
q0 79 -56 135.5t-136 56.5z" />
            <glyph glyph-name="inbox" unicode="&#xf102;"
                   d="M480 -64h-448q-13 0 -22.5 9.5t-9.5 22.5v128v32l128 320h256l128 -320v-32v-128q0 -13 -9.5 -22.5t-22.5 -9.5zM352 384h-192l-96 -256h96v-64h192v64h96z" />
            <glyph glyph-name="cloud" unicode="&#xf103;"
                   d="M368 1v-1h-224q-60 0 -102 42t-42 102q0 53 34.5 93t85.5 49q15 43 52 70.5t84 27.5q42 0 77 -22.5t53 -60.5q54 -9 90 -51t36 -98q0 -61 -42 -104.5t-102 -46.5z" />
            <glyph glyph-name="bell" unicode="&#xf104;" horiz-adv-x="384"
                   d="M368 32h-16h-24h-81h-110h-81h-40q-7 0 -11.5 4.5t-4.5 11.5v32q0 7 4.5 11.5t11.5 4.5h18q-2 14 -2 16v128q0 55 37 95.5t91 46.5v50q0 7 4.5 11.5t11.5 4.5h32q7 0 11.5 -4.5t4.5 -11.5v-50q54 -6 91 -46.5t37 -95.5v-128q0 -2 -2 -16h18q7 0 11.5 -4.5t4.5 -11.5v-32
q0 -7 -4.5 -11.5t-11.5 -4.5zM192 -64q-27 0 -45.5 18.5t-18.5 45.5h128q0 -27 -18.5 -45.5t-45.5 -18.5z" />
            <glyph glyph-name="book" unicode="&#xf105;" horiz-adv-x="448"
                   d="M64 0h384q0 -27 -18.5 -45.5t-45.5 -18.5h-320q-27 0 -45.5 18.5t-18.5 45.5v384q0 27 18.5 45.5t45.5 18.5h192v-192l60 64l68 -64v192q27 0 45.5 -18.5t18.5 -45.5v-320h-384v-64z" />
            <glyph glyph-name="bookmark" unicode="&#xf106;" horiz-adv-x="320"
                   d="M0 448h320v-512l-164 128l-156 -128v512z" />
            <glyph glyph-name="tag" unicode="&#xf107;"
                   d="M512 202l-257 -256q-9 -10 -22 -10t-23 10l-201 200q-9 10 -9 23t9 22l257 257h246v-246zM384 352q-13 0 -22.5 -9.5t-9.5 -22.5t9.5 -22.5t22.5 -9.5t22.5 9.5t9.5 22.5t-9.5 22.5t-22.5 9.5z" />
            <glyph glyph-name="library" unicode="&#xf108;"
                   d="M288 -44v444l224 28v-416zM224 -44l-224 56v416l224 -28v-444z" />
            <glyph glyph-name="share" unicode="&#xf109;"
                   d="M432 288q-29 0 -51 19l-190 -109q0 -1 0.5 -3t0.5 -3t-0.5 -3t-0.5 -3l190 -109q22 19 51 19q33 0 56.5 -23.5t23.5 -56.5t-23.5 -56.5t-56.5 -23.5t-56.5 23.5t-23.5 56.5v2v1l-186 108q-28 -31 -70 -31q-40 0 -68 28t-28 68t28 68t68 28q42 0 70 -31l186 108v1v2
q0 33 23.5 56.5t56.5 23.5t56.5 -23.5t23.5 -56.5t-23.5 -56.5t-56.5 -23.5z" />
            <glyph glyph-name="reply" unicode="&#xf10a;"
                   d="M510 -3q-2 -13 -15 -13h-1q-12 0 -13 14q-1 5 -5.5 17.5t-21.5 36t-43 43t-75.5 34.5t-111.5 15v-80q0 -7 -5 -11.5t-11 -4.5q-1 0 -4 1v-2l-4 3q-2 2 -5 4l-189 154q-6 5 -6 12t6 12l193 167v-2q5 3 9 3q6 0 11 -4.5t5 -11.5v-80q69 -2 131 -26.5t97 -64.5
q21 -24 34.5 -55t18.5 -56t6 -51.5t0.5 -37t-1.5 -16.5z" />
            <glyph glyph-name="refresh" unicode="&#xf10b;"
                   d="M256 -63q-58 0 -108.5 24t-86.5 67l57 33q57 -60 138 -60q80 0 136 56t56 135t-56 135t-136 56q-52 0 -96 -26t-69 -69h101q13 0 22.5 -9.5t9.5 -22.5t-9.5 -22.5t-22.5 -9.5h-160q-14 0 -23 11q-9 10 -9 21v159q0 13 9.5 22.5t22.5 9.5t22.5 -9.5t9.5 -22.5v-57
q36 42 85.5 65.5t106.5 23.5q106 0 181 -74.5t75 -180.5t-75 -180.5t-181 -74.5z" />
            <glyph glyph-name="move" unicode="&#xf10c;"
                   d="M512 192l-128 -96v64h-96v-96h64l-96 -128l-96 128h64v96h-96v-64l-128 96l128 96v-64h96v96h-64l96 128l96 -128h-64v-96h96v64z" />
            <glyph glyph-name="chat" unicode="&#xf10d;"
                   d="M480 48h-216l-168 -96v96h-64q-13 0 -22.5 9.5t-9.5 22.5v320q0 13 9.5 22.5t22.5 9.5h448q13 0 22.5 -9.5t9.5 -22.5v-320q0 -13 -9.5 -22.5t-22.5 -9.5z" />
            <glyph glyph-name="chat-working" unicode="&#xf10e;"
                   d="M480 48h-216l-168 -96v96h-64q-13 0 -22.5 9.5t-9.5 22.5v320q0 13 9.5 22.5t22.5 9.5h448q13 0 22.5 -9.5t9.5 -22.5v-320q0 -13 -9.5 -22.5t-22.5 -9.5zM128 272q-13 0 -22.5 -9.5t-9.5 -22.5t9.5 -22.5t22.5 -9.5t22.5 9.5t9.5 22.5t-9.5 22.5t-22.5 9.5zM256 272
q-13 0 -22.5 -9.5t-9.5 -22.5t9.5 -22.5t22.5 -9.5t22.5 9.5t9.5 22.5t-9.5 22.5t-22.5 9.5zM384 272q-13 0 -22.5 -9.5t-9.5 -22.5t9.5 -22.5t22.5 -9.5t22.5 9.5t9.5 22.5t-9.5 22.5t-22.5 9.5z" />
            <glyph glyph-name="chat-text" unicode="&#xf10f;"
                   d="M480 48h-216l-168 -96v96h-64q-13 0 -22.5 9.5t-9.5 22.5v320q0 13 9.5 22.5t22.5 9.5h448q13 0 22.5 -9.5t9.5 -22.5v-320q0 -13 -9.5 -22.5t-22.5 -9.5zM384 336h-256v-64h256v64zM384 208h-256v-64h256v64z" />
            <glyph glyph-name="chat-group" unicode="&#xf110;"
                   d="M480 48h-32v-96l-168 96h-96l112 64h120q13 0 22.5 9.5t9.5 22.5v160h32q13 0 22.5 -9.5t9.5 -22.5v-192q0 -13 -9.5 -22.5t-22.5 -9.5zM352 176h-120l-168 -96v96h-32q-13 0 -22.5 9.5t-9.5 22.5v192q0 13 9.5 22.5t22.5 9.5h320q13 0 22.5 -9.5t9.5 -22.5v-192
q0 -13 -9.5 -22.5t-22.5 -9.5z" />
            <glyph glyph-name="envelope" unicode="&#xf111;"
                   d="M448 -32h-384q-27 0 -45.5 18.5t-18.5 45.5v315l231 -174l1 -1.5t1 -2.5q9 -9 23 -8q14 -1 23 8q1 1 1.5 2.5l0.5 1.5l231 174v-315q0 -27 -18.5 -45.5t-45.5 -18.5zM26 403q17 13 38 13h384q21 0 38 -13l-230 -174z" />
            <glyph glyph-name="envelope-open" unicode="&#xf112;"
                   d="M448 -46h-384q-27 0 -45.5 18.5t-18.5 45.5v288h3q0 13 9 21l220 93q1 1 1 1.5v0.5q10 9 23 8q13 1 23 -8v-0.5t1 -1.5l220 -93q9 -8 9 -21h3v-288q0 -27 -18.5 -45.5t-45.5 -18.5zM448 289l-192 81l-192 -81v-111l192 -96l192 96v111zM128 210v64h256v-64l-128 -64z" />
            <glyph glyph-name="user" unicode="&#xf113;" horiz-adv-x="384"
                   d="M12 -48q-12 33 -12 64q0 61 35 110t90 69q-28 18 -44.5 46.5t-16.5 62.5q0 53 37.5 90.5t90.5 37.5t90.5 -37.5t37.5 -90.5q0 -34 -16.5 -62.5t-44.5 -46.5q55 -20 90 -69t35 -110q0 -31 -12 -64h-360z" />
            <glyph glyph-name="user-circle" unicode="&#xf114;"
                   d="M256 -64q-106 0 -181 75t-75 181t75 181t181 75t181 -75t75 -181t-75 -181t-181 -75zM256 384q-80 0 -136 -56t-56 -136q0 -70 47 -125q27 58 86 82q-37 29 -37 75q0 40 28 68t68 28t68 -28t28 -68q0 -46 -37 -75q59 -24 86 -82q47 55 47 125q0 80 -56 136t-136 56z" />
            <glyph glyph-name="users" unicode="&#xf115;"
                   d="M219 181q45 -18 73 -58.5t28 -90.5q0 -16 -3 -32h-314q-3 16 -3 32q0 50 28 90.5t73 58.5q-37 29 -37 75q0 40 28 68t68 28t68 -28t28 -68q0 -46 -37 -75zM422 245q40 -16 65 -52t25 -81q0 -23 -9 -48h-121q2 14 2 16q0 50 -31.5 89t-79.5 51q18 16 41 25q-26 24 -26 59
q0 33 23.5 56.5t56.5 23.5t56.5 -23.5t23.5 -56.5q0 -35 -26 -59z" />
            <glyph glyph-name="user-add" unicode="&#xf116;"
                   d="M496 288h-48v-48q0 -7 -4.5 -11.5t-11.5 -4.5h-32q-7 0 -11.5 4.5t-4.5 11.5v48h-48q-7 0 -11.5 4.5t-4.5 11.5v32q0 7 4.5 11.5t11.5 4.5h48v48q0 7 4.5 11.5t11.5 4.5h32q7 0 11.5 -4.5t4.5 -11.5v-48h48q7 0 11.5 -4.5t4.5 -11.5v-32q0 -7 -4.5 -11.5t-11.5 -4.5z
M320 0q0 -16 -3 -32h-314q-3 16 -3 32q0 50 28 90.5t73 58.5q-37 29 -37 75q0 40 28 68t68 28t68 -28t28 -68q0 -46 -37 -75q45 -18 73 -58.5t28 -90.5z" />
            <glyph glyph-name="grid-9" unicode="&#xf117;" horiz-adv-x="448"
                   d="M416 -32h-64q-13 0 -22.5 9.5t-9.5 22.5v64q0 13 9.5 22.5t22.5 9.5h64q13 0 22.5 -9.5t9.5 -22.5v-64q0 -13 -9.5 -22.5t-22.5 -9.5zM416 128h-64q-13 0 -22.5 9.5t-9.5 22.5v64q0 13 9.5 22.5t22.5 9.5h64q13 0 22.5 -9.5t9.5 -22.5v-64q0 -13 -9.5 -22.5t-22.5 -9.5z
M416 288h-64q-13 0 -22.5 9.5t-9.5 22.5v64q0 13 9.5 22.5t22.5 9.5h64q13 0 22.5 -9.5t9.5 -22.5v-64q0 -13 -9.5 -22.5t-22.5 -9.5zM256 -32h-64q-13 0 -22.5 9.5t-9.5 22.5v64q0 13 9.5 22.5t22.5 9.5h64q13 0 22.5 -9.5t9.5 -22.5v-64q0 -13 -9.5 -22.5t-22.5 -9.5z
M256 128h-64q-13 0 -22.5 9.5t-9.5 22.5v64q0 13 9.5 22.5t22.5 9.5h64q13 0 22.5 -9.5t9.5 -22.5v-64q0 -13 -9.5 -22.5t-22.5 -9.5zM256 288h-64q-13 0 -22.5 9.5t-9.5 22.5v64q0 13 9.5 22.5t22.5 9.5h64q13 0 22.5 -9.5t9.5 -22.5v-64q0 -13 -9.5 -22.5t-22.5 -9.5z
M96 -32h-64q-13 0 -22.5 9.5t-9.5 22.5v64q0 13 9.5 22.5t22.5 9.5h64q13 0 22.5 -9.5t9.5 -22.5v-64q0 -13 -9.5 -22.5t-22.5 -9.5zM96 128h-64q-13 0 -22.5 9.5t-9.5 22.5v64q0 13 9.5 22.5t22.5 9.5h64q13 0 22.5 -9.5t9.5 -22.5v-64q0 -13 -9.5 -22.5t-22.5 -9.5z
M96 288h-64q-13 0 -22.5 9.5t-9.5 22.5v64q0 13 9.5 22.5t22.5 9.5h64q13 0 22.5 -9.5t9.5 -22.5v-64q0 -13 -9.5 -22.5t-22.5 -9.5z" />
            <glyph glyph-name="grid-4" unicode="&#xf118;" horiz-adv-x="448"
                   d="M416 -32h-128q-13 0 -22.5 9.5t-9.5 22.5v128q0 13 9.5 22.5t22.5 9.5h128q13 0 22.5 -9.5t9.5 -22.5v-128q0 -13 -9.5 -22.5t-22.5 -9.5zM416 224h-128q-13 0 -22.5 9.5t-9.5 22.5v128q0 13 9.5 22.5t22.5 9.5h128q13 0 22.5 -9.5t9.5 -22.5v-128q0 -13 -9.5 -22.5
t-22.5 -9.5zM160 -32h-128q-13 0 -22.5 9.5t-9.5 22.5v128q0 13 9.5 22.5t22.5 9.5h128q13 0 22.5 -9.5t9.5 -22.5v-128q0 -13 -9.5 -22.5t-22.5 -9.5zM160 224h-128q-13 0 -22.5 9.5t-9.5 22.5v128q0 13 9.5 22.5t22.5 9.5h128q13 0 22.5 -9.5t9.5 -22.5v-128
q0 -13 -9.5 -22.5t-22.5 -9.5z" />
            <glyph glyph-name="menu" unicode="&#xf119;"
                   d="M496 0h-480q-7 0 -11.5 4.5t-4.5 11.5v32q0 7 4.5 11.5t11.5 4.5h480q7 0 11.5 -4.5t4.5 -11.5v-32q0 -7 -4.5 -11.5t-11.5 -4.5zM496 160h-480q-7 0 -11.5 4.5t-4.5 11.5v32q0 7 4.5 11.5t11.5 4.5h480q7 0 11.5 -4.5t4.5 -11.5v-32q0 -7 -4.5 -11.5t-11.5 -4.5z
M496 320h-480q-7 0 -11.5 4.5t-4.5 11.5v32q0 7 4.5 11.5t11.5 4.5h480q7 0 11.5 -4.5t4.5 -11.5v-32q0 -7 -4.5 -11.5t-11.5 -4.5z" />
            <glyph glyph-name="layout" unicode="&#xf11a;"
                   d="M448 -64h-256v320h320v-256q0 -27 -18.5 -45.5t-45.5 -18.5zM0 384q0 26 18.5 45t45.5 19h384q27 0 45.5 -19t18.5 -45v-64h-512v64zM128 -64h-64q-27 0 -45.5 18.5t-18.5 45.5v256h128v-320z" />
            <glyph glyph-name="fullscreen" unicode="&#xf11b;"
                   d="M448 -64h-96v64h96v96h64v-96v-64h-64zM448 384h-96v64h96h64v-64v-96h-64v96zM64 288h-64v96v64h64h96v-64h-96v-96zM96 320h320v-256h-320v256zM64 0h96v-64h-96h-64v64v96h64v-96z" />
            <glyph glyph-name="fullscreen-exit" unicode="&#xf11c;"
                   d="M448 0v-64h-64v64v64h64h64v-64h-64zM384 320v64v64h64v-64h64v-64h-64h-64zM384 96h-256v192h256v-192zM0 320v64h64v64h64v-64v-64h-64h-64zM128 64v-64v-64h-64v64h-64v64h64h64z" />
            <glyph glyph-name="expand" unicode="&#xf11d;"
                   d="M448 -64h-96v64h96v96h64v-96v-64h-64zM448 384h-96v64h96h64v-64v-96h-64v96zM0 -64v64v96h64v-96h96v-64h-96h-64zM64 288h-64v96v64h64h96v-64h-96v-96z" />
            <glyph glyph-name="contract" unicode="&#xf11e;"
                   d="M416 32v-96h-64v96v64h64h96v-64h-96zM352 288v64v96h64v-96h96v-64h-96h-64zM96 32h-96v64h96h64v-64v-96h-64v96zM0 288v64h96v96h64v-96v-64h-64h-96z" />
            <glyph glyph-name="arrow-expand" unicode="&#xf11f;"
                   d="M500 -55q-9 -9 -20 -9h-128q-13 0 -22.5 9.5t-9.5 22.5t9.5 22.5t22.5 9.5h52l-107 107q-9 9 -9 22t9 22t22 9t22 -9l107 -107v52q0 13 9.5 22.5t22.5 9.5t22.5 -9.5t9.5 -22.5v-128q0 -14 -12 -23zM171 233l-107 107v-52q0 -13 -9.5 -22.5t-22.5 -9.5t-22.5 9.5
t-9.5 22.5v128q0 14 12 23q9 9 20 9h128q13 0 22.5 -9.5t9.5 -22.5t-9.5 -22.5t-22.5 -9.5h-52l107 -107q9 -9 9 -22t-9 -22t-22 -9t-22 9z" />
            <glyph glyph-name="arrow-shrink" unicode="&#xf120;"
                   d="M503 -55q-9 -9 -22 -9t-22 9l-107 106v-51q0 -13 -9.5 -22.5t-22.5 -9.5t-22 9.5t-10 22.5v128q0 13 12 23q9 9 20 9h128q13 0 22.5 -10t9.5 -22.5t-9.5 -22t-22.5 -9.5h-51l106 -107q9 -9 9 -22t-9 -22zM192 224h-128q-13 0 -22.5 10t-9.5 22.5t9.5 22t22.5 9.5h51
l-106 107q-9 9 -9 22t9 22t22 9t22 -9l107 -106v51q0 13 9.5 22.5t22.5 9.5t22 -9.5t10 -22.5v-128q0 -13 -12 -23q-9 -9 -20 -9z" />
            <glyph glyph-name="desktop" unicode="&#xf121;"
                   d="M480 64h-448q-13 0 -22.5 9.5t-9.5 22.5v320q0 13 9.5 22.5t22.5 9.5h448q13 0 22.5 -9.5t9.5 -22.5v-320q0 -13 -9.5 -22.5t-22.5 -9.5zM448 371q0 5 -4 9t-10 4h-356q-6 0 -10 -4t-4 -9v-230q0 -6 4 -9.5t10 -3.5h356q6 0 10 3.5t4 9.5v230zM179 0h45v64h64v-64h45
q8 0 13.5 -9.5t5.5 -22.5t-5.5 -22.5t-13.5 -9.5h-154q-8 0 -13.5 9.5t-5.5 22.5t5.5 22.5t13.5 9.5z" />
            <glyph glyph-name="mobile" unicode="&#xf122;" horiz-adv-x="384"
                   d="M320 -64h-256q-27 0 -45.5 18.5t-18.5 45.5v384q0 27 18.5 45.5t45.5 18.5h256q27 0 45.5 -18.5t18.5 -45.5v-384q0 -27 -18.5 -45.5t-45.5 -18.5zM320 320q0 27 -18.5 45.5t-45.5 18.5h-128q-27 0 -45.5 -18.5t-18.5 -45.5v-256q0 -27 18.5 -45.5t45.5 -18.5h128
q27 0 45.5 18.5t18.5 45.5v256zM96 352h192v-64h-192v64zM224 32h-64v64h64v-64z" />
            <glyph glyph-name="signal" unicode="&#xf123;" horiz-adv-x="448"
                   d="M432 0h-32q-7 0 -11.5 4.5t-4.5 11.5v352q0 7 4.5 11.5t11.5 4.5h32q7 0 11.5 -4.5t4.5 -11.5v-352q0 -7 -4.5 -11.5t-11.5 -4.5zM304 0h-32q-7 0 -11.5 4.5t-4.5 11.5v256q0 7 4.5 11.5t11.5 4.5h32q7 0 11.5 -4.5t4.5 -11.5v-256q0 -7 -4.5 -11.5t-11.5 -4.5zM176 0
h-32q-7 0 -11.5 4.5t-4.5 11.5v160q0 7 4.5 11.5t11.5 4.5h32q7 0 11.5 -4.5t4.5 -11.5v-160q0 -7 -4.5 -11.5t-11.5 -4.5zM48 0h-32q-7 0 -11.5 4.5t-4.5 11.5v64q0 7 4.5 11.5t11.5 4.5h32q7 0 11.5 -4.5t4.5 -11.5v-64q0 -7 -4.5 -11.5t-11.5 -4.5z" />
            <glyph glyph-name="power" unicode="&#xf124;"
                   d="M256 -64q-106 0 -181 75t-75 181q0 66 31.5 123t85.5 92l29 -58q-38 -27 -60 -68t-22 -89q0 -80 56 -136t136 -56t136 56t56 136q0 48 -22 89t-60 68l29 58q54 -35 85.5 -92t31.5 -123q0 -106 -75 -181t-181 -75zM267 192h-22q-9 0 -15 9.5t-6 22.5v192q0 13 6 22.5
t15 9.5h22q8 0 14.5 -9.5t6.5 -22.5v-192q0 -13 -6 -22.5t-15 -9.5z" />
            <glyph glyph-name="more-horizontal" unicode="&#xf125;"
                   d="M448 128q-27 0 -45.5 18.5t-18.5 45.5t18.5 45.5t45.5 18.5t45.5 -18.5t18.5 -45.5t-18.5 -45.5t-45.5 -18.5zM256 128q-27 0 -45.5 18.5t-18.5 45.5t18.5 45.5t45.5 18.5t45.5 -18.5t18.5 -45.5t-18.5 -45.5t-45.5 -18.5zM64 128q-27 0 -45.5 18.5t-18.5 45.5t18.5 45.5
t45.5 18.5t45.5 -18.5t18.5 -45.5t-18.5 -45.5t-45.5 -18.5z" />
            <glyph glyph-name="more-vertical" unicode="&#xf126;" horiz-adv-x="128"
                   d="M64 128q-27 0 -45.5 18.5t-18.5 45.5t18.5 45.5t45.5 18.5t45.5 -18.5t18.5 -45.5t-18.5 -45.5t-45.5 -18.5zM64 320q-27 0 -45.5 18.5t-18.5 45.5t18.5 45.5t45.5 18.5t45.5 -18.5t18.5 -45.5t-18.5 -45.5t-45.5 -18.5zM64 64q27 0 45.5 -18.5t18.5 -45.5t-18.5 -45.5
t-45.5 -18.5t-45.5 18.5t-18.5 45.5t18.5 45.5t45.5 18.5z" />
            <glyph glyph-name="globe" unicode="&#xf127;"
                   d="M256 -64q-106 0 -181 75t-75 181t75 181t181 75t181 -75t75 -181t-75 -181t-181 -75zM256 384q-80 0 -136 -56t-56 -136t56 -136t136 -56t136 56t56 136t-56 136t-136 56zM256 32q-38 0 -75 19q-18 20 3 38t72 39q-13 7 -33.5 22.5t-47.5 39t-41.5 50t-5.5 47.5
q22 30 55.5 47.5t72.5 17.5q53 0 96 -33q4 -48 -35 -71q-22 23 -40.5 24.5t-27.5 -9.5t-16.5 -24.5t-8.5 -14.5q-5 -3 -5 -11t2 -14l3 -7q3 -3 10 -7.5t31.5 -13t54.5 -11.5q19 -2 38.5 -11t25.5 -21q4 -7 -2 -21t-6 -20q-48 -55 -120 -55z" />
            <glyph glyph-name="map" unicode="&#xf128;" horiz-adv-x="384"
                   d="M192 -64q-15 0 -61.5 57t-88.5 135.5t-42 127.5q0 80 56 136t136 56t136 -56t56 -136q0 -49 -42 -127.5t-88.5 -135.5t-61.5 -57zM192 352q-40 0 -68 -28t-28 -68t28 -68t68 -28t68 28t28 68t-28 68t-68 28z" />
            <glyph glyph-name="flag" unicode="&#xf129;" horiz-adv-x="448"
                   d="M448 192h-320v256h320l-96 -128zM0 448h64v-512h-64v512z" />
            <glyph glyph-name="pie-chart" unicode="&#xf12a;"
                   d="M288 224v224q93 0 158.5 -65.5t65.5 -158.5h-224zM224 -64q-93 0 -158.5 65.5t-65.5 158.5t65.5 158.5t158.5 65.5v-224h224q0 -93 -65.5 -158.5t-158.5 -65.5z" />
            <glyph glyph-name="stats-bars" unicode="&#xf12b;" horiz-adv-x="448"
                   d="M432 -32h-32q-7 0 -11.5 4.5t-4.5 11.5v416q0 7 4.5 11.5t11.5 4.5h32q7 0 11.5 -4.5t4.5 -11.5v-416q0 -7 -4.5 -11.5t-11.5 -4.5zM304 -32h-32q-7 0 -11.5 4.5t-4.5 11.5v288q0 7 4.5 11.5t11.5 4.5h32q7 0 11.5 -4.5t4.5 -11.5v-288q0 -7 -4.5 -11.5t-11.5 -4.5z
M176 -32h-32q-7 0 -11.5 4.5t-4.5 11.5v352q0 7 4.5 11.5t11.5 4.5h32q7 0 11.5 -4.5t4.5 -11.5v-352q0 -7 -4.5 -11.5t-11.5 -4.5zM48 -32h-32q-7 0 -11.5 4.5t-4.5 11.5v160q0 7 4.5 11.5t11.5 4.5h32q7 0 11.5 -4.5t4.5 -11.5v-160q0 -7 -4.5 -11.5t-11.5 -4.5z" />
            <glyph glyph-name="pluse" unicode="&#xf12c;"
                   d="M482 -49h-452q-12 0 -21 9t-9 21v422q0 12 9 21t21 9h452q12 0 21 -9t9 -21v-422q0 -12 -9 -21t-21 -9zM439 373h-366q-5 0 -9 -4t-4 -9v-181q29 -17 60 -17q33 0 60 15.5t43 42.5v0l42 -41l2 -2q-26 -35 -64 -55t-83 -20q-29 0 -60 11v-89q0 -5 4 -9t9 -4h366q5 0 9 4
t4 9v157q-37 41 -91 41q-59 0 -95 -45l-1 2l-42 41q54 62 138 62q49 0 91 -24v102q0 5 -4 9t-9 4z" />
            <glyph glyph-name="home" unicode="&#xf12d;"
                   d="M230 434l3 5q9 10 23 9q14 1 23 -9l3 -5l221 -189q9 -9 9 -22t-9 -22t-21.5 -9t-21.5 9l-12 10v-275h-384v275l-12 -10q-9 -9 -21.5 -9t-21.5 9t-9 22t9 22z" />
            <glyph glyph-name="shopping-cart" unicode="&#xf12e;"
                   d="M512 96v-64h-352h-64v64v64v224h-96v64h96h416v-288h-352v-64h352zM224 -64h-64v64h64v-64zM448 -64h-64v64h64v-64z" />
            <glyph glyph-name="payment" unicode="&#xf12f;"
                   d="M448 0h-384q-27 0 -45.5 18.5t-18.5 45.5v160h512v-160q0 -27 -19 -45.5t-45 -18.5zM64 64h256v32h-256v-32zM128 160h-64v-32h64v32zM256 160h-64v-32h64v32zM384 160h-64v-32h64v32zM0 320q0 26 18.5 45t45.5 19h384q26 0 45 -19t19 -45v-32h-512v32z" />
            <glyph glyph-name="briefcase" unicode="&#xf130;"
                   d="M448 -49h-384q-27 0 -45.5 19t-18.5 45v169q5 -9 14 -9h482q7 0 11.5 5t4.5 11v-176q0 -26 -18.5 -45t-45.5 -19zM496 208h-482q-9 0 -14 -9v72q0 27 18.5 45.5t45.5 18.5h64v50q0 19 14 33.5t34 14.5h160q20 0 34 -14.5t14 -33.5v-50h64q27 0 45.5 -18.5t18.5 -45.5v-79
q0 6 -4.5 11t-11.5 5zM320 359q0 8 -21 8h-86q-21 0 -21 -8v-16q0 -8 21 -8h86q21 0 21 8v16z" />
            <glyph glyph-name="search" unicode="&#xf131;" horiz-adv-x="448"
                   d="M443 -5l-22 -22q-11 -12 -22 0l-99 99q-50 -36 -110 -36q-79 0 -134.5 55.5t-55.5 134.5t55.5 134.5t134.5 55.5t134.5 -55.5t55.5 -134.5q0 -60 -36 -110l99 -99q12 -11 0 -22zM189.5 353q-52.5 0 -89.5 -37t-37 -89.5t37 -89.5t89.5 -37t89.5 37t37 89.5t-37 89.5
t-89.5 37z" />
            <glyph glyph-name="zoom-in" unicode="&#xf132;" horiz-adv-x="448"
                   d="M443 -5l-22 -22q-11 -12 -22 0l-99 99q-50 -36 -110 -36q-79 0 -134.5 55.5t-55.5 134.5t55.5 134.5t134.5 55.5t134.5 -55.5t55.5 -134.5q0 -60 -36 -110l99 -99q12 -11 0 -22zM189.5 353q-52.5 0 -89.5 -37t-37 -89.5t37 -89.5t89.5 -37t89.5 37t37 89.5t-37 89.5
t-89.5 37zM222 194v-47q0 -7 -5 -11.5t-11 -4.5h-32q-7 0 -11.5 4.5t-4.5 11.5v47h-47q-7 0 -11.5 5t-4.5 11v32q0 7 4.5 11.5t11.5 4.5h47v47q0 7 4.5 11.5t11.5 4.5h32q6 0 11 -4.5t5 -11.5v-47h47q7 0 11.5 -4.5t4.5 -11.5v-32q0 -6 -4.5 -11t-11.5 -5h-47z" />
            <glyph glyph-name="zoom-out" unicode="&#xf133;" horiz-adv-x="448"
                   d="M443 -5l-22 -22q-11 -12 -22 0l-99 99q-50 -36 -110 -36q-79 0 -134.5 55.5t-55.5 134.5t55.5 134.5t134.5 55.5t134.5 -55.5t55.5 -134.5q0 -60 -36 -110l99 -99q12 -11 0 -22zM189.5 353q-52.5 0 -89.5 -37t-37 -89.5t37 -89.5t89.5 -37t89.5 37t37 89.5t-37 89.5
t-89.5 37zM111 194q-7 0 -11.5 5t-4.5 11v32q0 7 4.5 11.5t11.5 4.5h158q7 0 11.5 -4.5t4.5 -11.5v-32q0 -6 -4.5 -11t-11.5 -5h-158z" />
            <glyph glyph-name="download" unicode="&#xf134;"
                   d="M496 -32h-32h-416h-32h-16v16v48v112q0 7 4.5 11.5t11.5 4.5h32q7 0 11.5 -4.5t4.5 -11.5v-112h384v112q0 7 4.5 11.5t11.5 4.5h32q7 0 11.5 -4.5t4.5 -11.5v-112v-48v-16h-16zM282 110q0 -1 -1 -2.5t-2 -2.5q-9 -9 -23 -9v0q-14 0 -23 9q-1 1 -2 2.5t-1 2.5l-93 93
q-9 9 -9 22t9 22t22 9t22 -9l43 -43v180q0 13 9.5 22.5t22.5 9.5t22.5 -9.5t9.5 -22.5v-180l43 43q9 9 22 9t22 -9t9 -22t-9 -22z" />
            <glyph glyph-name="upload" unicode="&#xf135;"
                   d="M496 -30h-32h-416h-32h-16v16v48v112q0 6 4.5 11t11.5 5h32q7 0 11.5 -5t4.5 -11v-112h384v112q0 6 4.5 11t11.5 5h32q7 0 11.5 -5t4.5 -11v-112v-48v-16h-16zM329 265l-42 42v-178q0 -13 -9 -22t-22 -9t-22 9t-9 22v178l-42 -42q-9 -9 -21.5 -9t-21.5 9t-9 22t9 22
l91 92l1 2t2 2q9 10 22 9v0q13 1 22 -9q1 0 2 -2l1 -2l91 -92q9 -9 9 -22t-9 -22t-21.5 -9t-21.5 9z" />
            <glyph glyph-name="sort-asc" unicode="&#xf136;" horiz-adv-x="477"
                   d="M461 128h-224q-7 0 -11.5 4.5t-4.5 11.5v32q0 7 4.5 11.5t11.5 4.5h224q7 0 11.5 -4.5t4.5 -11.5v-32q0 -7 -4.5 -11.5t-11.5 -4.5zM397 256h-160q-7 0 -11.5 4.5t-4.5 11.5v32q0 7 4.5 11.5t11.5 4.5h160q7 0 11.5 -4.5t4.5 -11.5v-32q0 -7 -4.5 -11.5t-11.5 -4.5z
M333 384h-96q-7 0 -11.5 4.5t-4.5 11.5v32q0 7 4.5 11.5t11.5 4.5h96q7 0 11.5 -4.5t4.5 -11.5v-32q0 -7 -4.5 -11.5t-11.5 -4.5zM241 42l-86 -84q-8 -22 -30 -22t-30 21l-86 85q-9 9 -9 21.5t8.5 21t21 8.5t21.5 -9l42 -41v373q0 13 9.5 22.5t22.5 9.5t22.5 -9.5t9.5 -22.5
v-373l42 41q9 9 21.5 9t21 -8.5t8.5 -21t-9 -21.5z" />
            <glyph glyph-name="sort-des" unicode="&#xf137;" horiz-adv-x="477"
                   d="M461 384h-224q-7 0 -11.5 4.5t-4.5 11.5v32q0 7 4.5 11.5t11.5 4.5h224q7 0 11.5 -4.5t4.5 -11.5v-32q0 -7 -4.5 -11.5t-11.5 -4.5zM241 42l-86 -84q-8 -22 -30 -22t-30 21l-86 85q-9 9 -9 21.5t9 21t21 8.5t21 -9l42 -41v373q0 13 9.5 22.5t22.5 9.5t22.5 -9.5
t9.5 -22.5v-373l42 41q9 9 21.5 9t21 -8.5t8.5 -21t-9 -21.5zM221 144v32q0 7 4.5 11.5t11.5 4.5h96q7 0 11.5 -4.5t4.5 -11.5v-32q0 -7 -4.5 -11.5t-11.5 -4.5h-96q-7 0 -11.5 4.5t-4.5 11.5zM221 272v32q0 7 4.5 11.5t11.5 4.5h160q7 0 11.5 -4.5t4.5 -11.5v-32
q0 -7 -4.5 -11.5t-11.5 -4.5h-160q-7 0 -11.5 4.5t-4.5 11.5z" />
            <glyph glyph-name="graph-up" unicode="&#xf138;"
                   d="M512 192q0 -13 -9.5 -22.5t-22.5 -9.5t-22.5 9.5t-9.5 22.5v42l-167 -192q-5 -4 -12 -7q-20 -9 -36 6l-101 102l-75 -101q-10 -9 -23.5 -9t-23.5 9.5t-10 23.5t10 24l93 125q10 10 25 9q14 0 23 -9l102 -102l154 175h-55q-12 0 -22 9.5t-10 22.5t10 22.5t22 9.5h123
q9 1 17 -3l1.5 -1l1.5 -1q6 -3 7 -4q0 -1 1 -2t1 -2q8 -9 8 -19v-128z" />
            <glyph glyph-name="graph-down" unicode="&#xf139;"
                   d="M504 46l-1 -1.5l-1 -1.5q-1 -1 -7 -5l-1.5 -0.5t-1.5 -1.5q-8 -3 -17 -2h-123q-12 0 -22 9.5t-10 22t10 22t22 9.5h55l-154 174l-102 -101q-10 -10 -23 -10q-15 -1 -26 10l-92 123q-10 10 -10 23.5t10 23.5t23.5 10t23.5 -10l74 -99l102 100q16 16 36 7q7 -3 12 -8
l167 -190v42q0 13 9.5 22.5t22.5 9.5t22.5 -9.5t9.5 -22.5v-127q0 -10 -8 -19z" />
            <glyph glyph-name="replay" unicode="&#xf13a;"
                   d="M480 384h-57q42 -36 65.5 -85.5t23.5 -106.5q0 -106 -75 -181t-181 -75t-181 75t-75 181q0 97 64.5 169.5t159.5 84.5v-65q-69 -12 -114.5 -65t-45.5 -124q0 -80 56 -136t136 -56t136 56t56 136q0 52 -26 96t-70 69v-69q0 -13 -9.5 -22.5t-22.5 -9.5t-22.5 9.5t-9.5 22.5
v128q0 14 12 23q9 9 20 9h160q13 0 22.5 -9.5t9.5 -22.5t-9.5 -22.5t-22.5 -9.5z" />
            <glyph glyph-name="edit" unicode="&#xf13b;"
                   d="M465 -64h-418q-20 0 -33.5 13.5t-13.5 32.5v419q0 20 13.5 33.5t33.5 13.5h241l-64 -64h-160v-384h384v160l64 64v-242q0 -19 -13.5 -32.5t-33.5 -13.5zM213 104q-12 -11 -23 0l-23 23q-11 11 0 22l294 295q12 11 23 0l23 -23q11 -11 0 -23z" />
            <glyph glyph-name="pencil" unicode="&#xf13c;" horiz-adv-x="480"
                   d="M341 384l34 34q14 14 34 14t34 -14l23 -23q14 -14 14 -34t-14 -34l-34 -34zM386 247l-261 -261l-125 -34l34 125l261 261z" />
            <glyph glyph-name="rubber" unicode="&#xf13d;" horiz-adv-x="513"
                   d="M494 194l-226 -226h-11h-160h-11l-67 67q-19 19 -19 45.5t19 45.5l271 271q19 19 45.5 19t45.5 -19l113 -113q19 -19 19 -45.5t-19 -44.5zM311 150l-63 63q-11 10 -24 11.5t-21 -6.5l-119 -119q-8 -8 -6.5 -21t11.5 -24l23 -22h131l73 73q8 8 6.5 21t-11.5 24z" />
            <glyph glyph-name="crop" unicode="&#xf13e;"
                   d="M512 64v-64h-64v-64h-64v64h-288h-32v32v288h-64v64h64v64h64v-64h275l53 53l45 -45l-53 -53v-275h64zM131 64l-3 3v-3h3zM128 320v-211l211 211h-211zM173 64h211v211z" />
            <glyph glyph-name="eye" unicode="&#xf13f;"
                   d="M256 0q-53 0 -99 20t-73.5 48t-47.5 56t-28 48l-8 20q3 8 8.5 21t27 46t48 58t73 46t99.5 21t99 -20t73.5 -48t47.5 -56t28 -48l8 -20q-3 -8 -8.5 -21t-27 -46t-48.5 -58t-73 -46t-99 -21zM256 320q-53 0 -90.5 -37.5t-37.5 -90.5t37.5 -90.5t90.5 -37.5t90.5 37.5
t37.5 90.5t-37.5 90.5t-90.5 37.5zM256 128q-27 0 -45.5 18.5t-18.5 45.5t18.5 45.5t45.5 18.5t45.5 -18.5t18.5 -45.5t-18.5 -45.5t-45.5 -18.5z" />
            <glyph glyph-name="eye-close" unicode="&#xf140;"
                   d="M512 192q-3 -8 -8.5 -21t-27 -46t-48.5 -58t-73 -46t-99 -21q-64 0 -118 29l-82 -82l-45 45l74 75q-27 24 -48 55.5t-29 50.5l-8 19q3 8 8.5 21t27 46t48 58t73 46t99.5 21q64 0 118 -29l82 82l45 -45l-74 -74q27 -25 48 -56.5t29 -50.5zM256 64q53 0 90.5 37.5
t37.5 90.5q0 34 -18 65l-48 -49q2 -9 2 -16q0 -27 -18.5 -45.5t-45.5 -18.5q-7 0 -16 2l-49 -48q31 -18 65 -18zM256 320q-53 0 -90.5 -37.5t-37.5 -90.5q0 -34 18 -65l48 49q-2 9 -2 16q0 27 18.5 45.5t45.5 18.5q7 0 16 -2l49 48q-31 18 -65 18z" />
            <glyph glyph-name="image" unicode="&#xf141;"
                   d="M448 -32h-384q-27 0 -45.5 18.5t-18.5 45.5v320q0 27 18.5 45.5t45.5 18.5h384q27 0 45.5 -18.5t18.5 -45.5v-320q0 -27 -18.5 -45.5t-45.5 -18.5zM64 352v-320h64q151 146 192 128q21 -9 58.5 -43t69.5 -71v306h-384zM176 192q-20 0 -34 14t-14 34t14 34t34 14t34 -14
t14 -34t-14 -34t-34 -14z" />
            <glyph glyph-name="gallery" unicode="&#xf142;"
                   d="M448 -48h-288q-27 0 -45.5 18.5t-18.5 45.5v64h-32q-27 0 -45.5 18.5t-18.5 45.5v224q0 27 18.5 45.5t45.5 18.5h288q27 0 45.5 -18.5t18.5 -45.5v-32h32q27 0 45.5 -18.5t18.5 -45.5v-256q0 -27 -18.5 -45.5t-45.5 -18.5zM352 368h-288v-224h32v128q0 27 18.5 45.5
t45.5 18.5h192v32zM160 272v-256h57q95 113 135 96q38 -16 96 -80v240h-288zM240 144q-20 0 -34 14t-14 34t14 34t34 14t34 -14t14 -34t-14 -34t-34 -14z" />
            <glyph glyph-name="video" unicode="&#xf143;"
                   d="M480 -32h-448q-13 0 -22.5 9.5t-9.5 22.5v384q0 13 9.5 22.5t22.5 9.5h448q13 0 22.5 -9.5t9.5 -22.5v-384q0 -13 -9.5 -22.5t-22.5 -9.5zM448 338q0 6 -4 10t-10 4h-356q-6 0 -10 -4t-4 -10v-292q0 -6 4 -10t10 -4h356q6 0 10 4t4 10v292zM192 288l160 -96l-160 -96v192
z" />
            <glyph glyph-name="camera" unicode="&#xf144;"
                   d="M512 31l-128 92v-43q0 -19 -14 -33.5t-34 -14.5h-288q-20 0 -34 14.5t-14 33.5v225q0 19 14 33.5t34 14.5h288q20 0 34 -14.5t14 -33.5v-45l128 91v-320z" />
            <glyph glyph-name="folder" unicode="&#xf145;"
                   d="M448 -32h-384q-27 0 -45.5 18.5t-18.5 45.5v224v32v64q0 27 18.5 45.5t45.5 18.5h128q27 0 45.5 -18.5t18.5 -45.5h192q27 0 45.5 -18.5t18.5 -45.5v-256q0 -27 -18.5 -45.5t-45.5 -18.5z" />
            <glyph glyph-name="clipboard" unicode="&#xf146;" horiz-adv-x="448"
                   d="M416 -64h-384q-13 0 -22.5 9.5t-9.5 22.5v384q0 13 9.5 22.5t22.5 9.5h96v32q0 13 9.5 22.5t22.5 9.5h128q13 0 22.5 -9.5t9.5 -22.5v-32h96q13 0 22.5 -9.5t9.5 -22.5v-384q0 -13 -9.5 -22.5t-22.5 -9.5zM96 80q0 -7 4.5 -11.5t11.5 -4.5h160q7 0 11.5 4.5t4.5 11.5v32
q0 7 -4.5 11.5t-11.5 4.5h-160q-7 0 -11.5 -4.5t-4.5 -11.5v-32zM352 240q0 7 -4.5 11.5t-11.5 4.5h-224q-7 0 -11.5 -4.5t-4.5 -11.5v-32q0 -7 4.5 -11.5t11.5 -4.5h224q7 0 11.5 4.5t4.5 11.5v32z" />
            <glyph glyph-name="order" unicode="&#xf147;" horiz-adv-x="448"
                   d="M416 -64h-384q-13 0 -22.5 9.5t-9.5 22.5v448q0 13 9.5 22.5t22.5 9.5h384q13 0 22.5 -9.5t9.5 -22.5v-448q0 -13 -9.5 -22.5t-22.5 -9.5zM352 336q0 7 -4.5 11.5t-11.5 4.5h-224q-7 0 -11.5 -4.5t-4.5 -11.5v-32q0 -7 4.5 -11.5t11.5 -4.5h224q7 0 11.5 4.5t4.5 11.5v32
zM352 208q0 7 -4.5 11.5t-11.5 4.5h-224q-7 0 -11.5 -4.5t-4.5 -11.5v-32q0 -7 4.5 -11.5t11.5 -4.5h224q7 0 11.5 4.5t4.5 11.5v32zM352 80q0 7 -4.5 11.5t-11.5 4.5h-224q-7 0 -11.5 -4.5t-4.5 -11.5v-32q0 -7 4.5 -11.5t11.5 -4.5h224q7 0 11.5 4.5t4.5 11.5v32z" />
            <glyph glyph-name="file" unicode="&#xf148;" horiz-adv-x="448"
                   d="M416 -64h-384q-13 0 -22.5 9.5t-9.5 22.5v448q0 13 9.5 22.5t22.5 9.5h224v-192h192v-288q0 -13 -9.5 -22.5t-22.5 -9.5zM320 448l128 -128h-128v128z" />
            <glyph glyph-name="copy" unicode="&#xf149;"
                   d="M480 64h-256q-13 0 -22.5 9.5t-9.5 22.5v320q0 13 9.5 22.5t22.5 9.5h128v-160h160v-192q0 -13 -9.5 -22.5t-22.5 -9.5zM384 448l128 -128h-128v128zM320 -32q0 -13 -9.5 -22.5t-22.5 -9.5h-256q-13 0 -22.5 9.5t-9.5 22.5v320q0 13 9.5 22.5t22.5 9.5h128v-288h160v-64z
" />
            <glyph glyph-name="add-file" unicode="&#xf14a;" horiz-adv-x="448"
                   d="M416 -64h-384q-13 0 -22.5 9.5t-9.5 22.5v448q0 13 9.5 22.5t22.5 9.5h224v-192h192v-288q0 -13 -9.5 -22.5t-22.5 -9.5zM320 112q0 7 -4.5 11.5t-11.5 4.5h-48v48q0 7 -4.5 11.5t-11.5 4.5h-32q-7 0 -11.5 -4.5t-4.5 -11.5v-48h-48q-7 0 -11.5 -4.5t-4.5 -11.5v-32
q0 -7 4.5 -11.5t11.5 -4.5h48v-48q0 -7 4.5 -11.5t11.5 -4.5h32q7 0 11.5 4.5t4.5 11.5v48h48q7 0 11.5 4.5t4.5 11.5v32zM320 448l128 -128h-128v128z" />
            <glyph glyph-name="print" unicode="&#xf14b;"
                   d="M96 384v32q0 13 9.5 22.5t22.5 9.5h256q13 0 22.5 -9.5t9.5 -22.5v-32h-320zM64 352h32h320h32q27 0 45.5 -18.5t18.5 -45.5v-192h-96v-160h-320v160h-96v192q0 27 18.5 45.5t45.5 18.5zM160 0h192v96h-192v-96z" />
            <glyph glyph-name="calendar" unicode="&#xf14c;"
                   d="M448 -64h-384q-27 0 -45.5 18.5t-18.5 45.5v384q0 27 18.5 45.5t45.5 18.5h64v-64h64v64h128v-64h64v64h64q27 0 45.5 -18.5t18.5 -45.5v-384q0 -27 -18.5 -45.5t-45.5 -18.5zM448 320h-384v-320h384v320zM192 192h-64v64h64v-64zM192 64h-64v64h64v-64zM288 192h-64v64
h64v-64zM288 64h-64v64h64v-64zM384 192h-64v64h64v-64zM384 64h-64v64h64v-64z" />
            <glyph glyph-name="time" unicode="&#xf14d;"
                   d="M256 -64q-106 0 -181 75t-75 181t75 181t181 75t181 -75t75 -181t-75 -181t-181 -75zM384 208q0 7 -4.5 11.5t-11.5 4.5h-80v112q0 7 -4.5 11.5t-11.5 4.5h-32q-7 0 -11.5 -4.5t-4.5 -11.5v-160q0 -7 4.5 -11.5t11.5 -4.5h32h96q7 0 11.5 4.5t4.5 11.5v32z" />
            <glyph glyph-name="trash" unicode="&#xf14e;"
                   d="M496 320h-48h-384h-48q-7 0 -11.5 4.5t-4.5 11.5v32q0 7 4.5 11.5t11.5 4.5h80h64v32q0 13 9.5 22.5t22.5 9.5h128q13 0 22.5 -9.5t9.5 -22.5v-32h64h80q7 0 11.5 -4.5t4.5 -11.5v-32q0 -7 -4.5 -11.5t-11.5 -4.5zM448 256v-288q0 -13 -9.5 -22.5t-22.5 -9.5h-320
q-13 0 -22.5 9.5t-9.5 22.5v288h384z" />
            <glyph glyph-name="plugin" unicode="&#xf14f;"
                   d="M256 -64q-16 0 -27 11l-218 218q-11 11 -11 27t11 27l80 80q8 8 18.5 2.5t8.5 -16.5q-1 -7 -1 -12q0 -26 18.5 -45t44.5 -19t43.5 19t17.5 45.5t-17.5 45t-43.5 18.5q-5 0 -11 -1q-12 -2 -17.5 8t3.5 19l74 74q11 11 27 11t27 -11l54 -54q9 27 32 44t52 17q36 0 62 -26
t26 -62q0 -29 -17 -52t-44 -32l53 -53q11 -11 11 -27t-11 -27l-218 -218q-11 -11 -27 -11z" />
            <glyph glyph-name="extension" unicode="&#xf150;"
                   d="M461 73h-51v-69q0 -28 -20 -48t-49 -20h-68v51q0 21 -15 36t-36 15h-34q-21 0 -36 -15t-15 -36v-51h-69q-28 0 -48 20t-20 48v69h51q21 0 36 15t15 36v34q0 21 -15 36t-36 15h-51v68q0 29 20 49t48 20h69v51q0 21 15 36t36 15h34q21 0 36 -15t15 -36v-51h68q29 0 49 -20
t20 -49v-68h51q21 0 36 -15t15 -36v-34q0 -21 -15 -36t-36 -15z" />
            <glyph glyph-name="memory" unicode="&#xf151;"
                   d="M496 96q7 0 11.5 -4.5t4.5 -11.5v-32q0 -7 -4.5 -11.5t-11.5 -4.5h-57q-8 -15 -23 -23v-57q0 -7 -4.5 -11.5t-11.5 -4.5h-32q-7 0 -11.5 4.5t-4.5 11.5v48h-64v-48q0 -7 -4.5 -11.5t-11.5 -4.5h-32q-7 0 -11.5 4.5t-4.5 11.5v48h-64v-48q0 -7 -4.5 -11.5t-11.5 -4.5h-32
q-7 0 -11.5 4.5t-4.5 11.5v57q-15 8 -23 23h-57q-7 0 -11.5 4.5t-4.5 11.5v32q0 7 4.5 11.5t11.5 4.5h48v64h-48q-7 0 -11.5 4.5t-4.5 11.5v32q0 7 4.5 11.5t11.5 4.5h48v64h-48q-7 0 -11.5 4.5t-4.5 11.5v32q0 7 4.5 11.5t11.5 4.5h57q8 15 23 23v57q0 7 4.5 11.5t11.5 4.5
h32q7 0 11.5 -4.5t4.5 -11.5v-48h64v48q0 7 4.5 11.5t11.5 4.5h32q7 0 11.5 -4.5t4.5 -11.5v-48h64v48q0 7 4.5 11.5t11.5 4.5h32q7 0 11.5 -4.5t4.5 -11.5v-57q15 -8 23 -23h57q7 0 11.5 -4.5t4.5 -11.5v-32q0 -7 -4.5 -11.5t-11.5 -4.5h-48v-64h48q7 0 11.5 -4.5
t4.5 -11.5v-32q0 -7 -4.5 -11.5t-11.5 -4.5h-48v-64h48z" />
            <glyph glyph-name="settings" unicode="&#xf152;"
                   d="M496 160h-51q-7 -43 -33 -79l36 -36q12 -11 0 -23l-22 -22q-12 -12 -23 0l-36 36q-36 -26 -79 -33v-51q0 -7 -4.5 -11.5t-11.5 -4.5h-32q-7 0 -11.5 4.5t-4.5 11.5v51q-43 7 -79 33l-36 -36q-11 -12 -23 0l-22 22q-12 12 0 23l36 36q-26 36 -33 79h-51q-7 0 -11.5 4.5
t-4.5 11.5v32q0 7 4.5 11.5t11.5 4.5h51q7 43 33 79l-36 36q-12 11 0 23l22 22q12 12 23 0l36 -36q36 26 79 33v51q0 7 4.5 11.5t11.5 4.5h32q7 0 11.5 -4.5t4.5 -11.5v-51q43 -7 79 -33l36 36q11 12 23 0l22 -22q12 -12 0 -23l-36 -36q26 -36 33 -79h51q7 0 11.5 -4.5
t4.5 -11.5v-32q0 -7 -4.5 -11.5t-11.5 -4.5zM256 288q-40 0 -68 -28t-28 -68t28 -68t68 -28t68 28t28 68t-28 68t-68 28z" />
            <glyph glyph-name="scissor" unicode="&#xf153;"
                   d="M496 356l-206 -164l206 -164q11 -7 14.5 -20t-3 -24t-19 -14.5t-24.5 2.5l-224 180l-58 -46q10 -21 10 -42q0 -40 -28 -68t-68 -28t-68 28t-28 68t28 68t68 28q21 0 42 -10q4 5 6 6l45 36l-45 36q-2 1 -6 6q-21 -10 -42 -10q-40 0 -68 28t-28 68t28 68t68 28t68 -28
t28 -68q0 -21 -10 -42l58 -46l224 180q12 6 24.5 2.5t19 -14.5t3 -24t-14.5 -20zM128 96h-64v-64h64v64zM128 352h-64v-64h64v64z" />
            <glyph glyph-name="wrench" unicode="&#xf154;"
                   d="M489 244l-46 -45q-23 -24 -56 -24t-57 24l-7 7l-228 -265q-11 -12 -23 0l-67 67q-5 5 -5 11.5t5 11.5l265 228l-7 7q-24 24 -24 57t24 56l45 46q20 20 48.5 22.5t51.5 -12.5l-55 -56q-14 -14 -14 -33.5t14 -33.5l23 -23q14 -14 33.5 -14t33.5 14l56 55q15 -23 12.5 -51.5
t-22.5 -48.5z" />
            <glyph glyph-name="hammer" unicode="&#xf155;"
                   d="M503 237l-46 -45q-9 -10 -22.5 -10t-22.5 10l-51 58l-266 -309q-11 -11 -22 0l-68 68q-12 12 0 23l312 269l-128 147q64 -2 120.5 -20t90 -42t58.5 -47.5t35 -39.5l10 -17q9 -9 9 -22.5t-9 -22.5z" />
            <glyph glyph-name="lock" unicode="&#xf156;" horiz-adv-x="448"
                   d="M416 -64h-384q-13 0 -22.5 9.5t-9.5 22.5v224q0 13 9.5 22.5t22.5 9.5h32v64q0 66 47 113t113 47t113 -47t47 -113v-64h32q13 0 22.5 -9.5t9.5 -22.5v-224q0 -13 -9.5 -22.5t-22.5 -9.5zM320 288q0 40 -28 68t-68 28t-68 -28t-28 -68v-64h192v64z" />
            <glyph glyph-name="unlock" unicode="&#xf157;" horiz-adv-x="448"
                   d="M416 -64h-384q-13 0 -22.5 9.5t-9.5 22.5v224q0 13 9.5 22.5t22.5 9.5h32v64q0 66 47 113t113 47t113 -47t47 -113h-64q0 40 -28 68t-68 28t-68 -28t-28 -68v-64h192h64h32q13 0 22.5 -9.5t9.5 -22.5v-224q0 -13 -9.5 -22.5t-22.5 -9.5z" />
            <glyph glyph-name="volume-low" unicode="&#xf158;" horiz-adv-x="416"
                   d="M320 82v220q41 -6 68.5 -37t27.5 -73t-27.5 -73t-68.5 -37zM32 96q-13 0 -22.5 9.5t-9.5 22.5v128q0 13 9.5 22.5t22.5 9.5h64l160 96v-384l-160 96h-64z" />
            <glyph glyph-name="volume-high" unicode="&#xf159;"
                   d="M384 -10v37q44 25 70 69t26 96t-26 96t-70 69v37q58 -28 93 -82t35 -120t-35 -120t-93 -82zM320 82v220q41 -6 68.5 -37t27.5 -73t-27.5 -73t-68.5 -37zM32 96q-13 0 -22.5 9.5t-9.5 22.5v128q0 13 9.5 22.5t22.5 9.5h64l160 96v-384l-160 96h-64z" />
            <glyph glyph-name="volume-off" unicode="&#xf15a;" horiz-adv-x="256"
                   d="M96 96h-64q-13 0 -22.5 9.5t-9.5 22.5v128q0 13 9.5 22.5t22.5 9.5h64l160 96v-384z" />
            <glyph glyph-name="pause" unicode="&#xf15b;" horiz-adv-x="320"
                   d="M304 0h-64q-7 0 -11.5 4.5t-4.5 11.5v352q0 7 4.5 11.5t11.5 4.5h64q7 0 11.5 -4.5t4.5 -11.5v-352q0 -7 -4.5 -11.5t-11.5 -4.5zM80 0h-64q-7 0 -11.5 4.5t-4.5 11.5v352q0 7 4.5 11.5t11.5 4.5h64q7 0 11.5 -4.5t4.5 -11.5v-352q0 -7 -4.5 -11.5t-11.5 -4.5z" />
            <glyph glyph-name="play" unicode="&#xf15c;" horiz-adv-x="320"
                   d="M0 0v384l320 -192z" />
            <glyph glyph-name="stop" unicode="&#xf15d;" horiz-adv-x="384"
                   d="M32 384h320q13 0 22.5 -9.5t9.5 -22.5v-320q0 -13 -9.5 -22.5t-22.5 -9.5h-320q-13 0 -22.5 9.5t-9.5 22.5v320q0 13 9.5 22.5t22.5 9.5z" />
            <glyph glyph-name="musical" unicode="&#xf15e;"
                   d="M512 96q0 -40 -28 -68t-68 -28t-68 28t-28 68t28 68t68 28q15 0 32 -6v134l-256 -26v-230h-6q6 -17 6 -32q0 -40 -28 -68t-68 -28t-68 28t-28 68t28 68t68 28q15 0 32 -6v166v32v96l320 32h64v-320h-6q6 -17 6 -32z" />
            <glyph glyph-name="random" unicode="&#xf15f;"
                   d="M384 288h-32l-84 -96l84 -96h32v64l128 -96l-128 -96v64h-64l-96 110l-96 -110h-128v64h96l84 96l-84 96h-96v64h128l96 -110l96 110h64v64l128 -96l-128 -96v64z" />
            <glyph glyph-name="reload" unicode="&#xf160;"
                   d="M480 224h-160q-13 0 -22.5 9.5t-9.5 22.5t9.5 22.5t22.5 9.5h101q-25 44 -69 70t-96 26q-80 0 -136 -56t-56 -136t56 -136t136 -56q81 0 138 60l57 -33q-36 -42 -86.5 -66.5t-108.5 -24.5q-106 0 -181 75t-75 181t75 181t181 75q57 0 106.5 -23.5t85.5 -65.5v57
q0 13 9.5 22.5t22.5 9.5t22.5 -9.5t9.5 -22.5v-160q0 -11 -9 -20q-9 -12 -23 -12z" />
            <glyph glyph-name="loop" unicode="&#xf161;"
                   d="M480 -63.5q-13 -0.5 -22.5 9.5t-9.5 22v56q-36 -41 -86 -64.5t-106 -23.5q-97 0 -169.5 64.5t-83.5 159.5h65q11 -68 64 -114t124 -46q52 0 96 26t69 70h-102q-12 0 -22 9.5t-10 22.5t9.5 22.5t22.5 9.5h189q0 -2 -0.5 -7.5t-0.5 -8.5q5 -9 5 -16v-160q0 -12 -9.5 -21.5
t-22.5 -10zM256 384q-52 0 -96 -26t-69 -70h102q12 0 22 -9.5t10 -22.5t-9.5 -22.5t-22.5 -9.5h-189q0 2 0.5 7.5t0.5 8.5q-5 9 -5 16v160q0 12 9.5 21.5t22.5 10t22.5 -9.5t9.5 -22v-56q36 41 86 64.5t106 23.5q97 0 169.5 -64.5t83.5 -159.5h-65q-11 68 -64 114t-124 46z
" />
            <glyph glyph-name="text" unicode="&#xf162;" horiz-adv-x="448"
                   d="M384 336v32h-128v-352h64v-64h-192v64h64v352h-128v-32h-64v32v64h448v-64v-32h-64z" />
            <glyph glyph-name="bold" unicode="&#xf163;" horiz-adv-x="320"
                   d="M224 -48h-96h-32h-32v6v-6h-64v480h64v-6v6h32h32h64q40 0 68 -28t28 -68v-32q0 -42 -32 -71v-31q28 -10 46 -34.5t18 -55.5v-64q0 -40 -28 -68t-68 -28zM64 214v-12v12zM160 368h-32h-13h-51v-128h64h32q27 0 45.5 18.5t18.5 45.5t-18.5 45.5t-45.5 18.5zM256 112
q0 27 -18.5 45.5t-45.5 18.5h-32h-96v-160h64h32h32q27 0 45.5 18.5t18.5 45.5v32z" />
            <glyph glyph-name="italic" unicode="&#xf164;" horiz-adv-x="320"
                   d="M256 368l-128 -352h-64l128 352h-64v64h192v-64h-64zM192 -48h-192v64h192v-64z" />
            <glyph glyph-name="underline" unicode="&#xf165;" horiz-adv-x="352"
                   d="M0 -48v64h352v-64h-352zM320 192q0 -46 -33 -79t-79 -33h-64q-46 0 -79 33t-33 79v176h-32v64h128v-64h-32v-176q0 -20 14 -34t34 -14h64q20 0 34 14t14 34v176h-32v64h128v-64h-32v-176z" />
            <glyph glyph-name="format-clear" unicode="&#xf166;" horiz-adv-x="384"
                   d="M176 240q7 0 16 4v-4h80h112v-64h-87q23 -38 23 -80q0 -60 -37.5 -102t-90.5 -42q-49 0 -85 37t-42 91h64q5 -28 22.5 -46t40.5 -18q27 0 45.5 23.5t18.5 56.5t-18.5 56.5t-45.5 23.5q-17 0 -32 -11v11h-73h-87v64h80q-16 31 -16 64q0 53 33 90.5t79 37.5q39 0 69 -27
t39 -69h-67q-15 32 -41 32q-20 0 -34 -18.5t-14 -45.5t14 -45.5t34 -18.5z" />
            <glyph glyph-name="text-type" unicode="&#xf167;"
                   d="M472 77l35 -34q12 -12 0 -24l-23 -23q-12 -11 -23 0l-35 35l-35 -35q-11 -11 -23 0l-23 23q-12 12 0 24l35 34l-35 35q-12 12 0 23l23 23q12 12 23 0l35 -34l35 34q11 12 23 0l23 -23q12 -11 0 -23zM393 307h-65v32h-99v-294h66v-66h-197v66h66v294h-98v-32h-66v32v66
h393v-66v-32z" />
            <glyph glyph-name="table" unicode="&#xf168;" horiz-adv-x="448"
                   d="M448 160v-128q0 -13 -9.5 -22.5t-22.5 -9.5h-384q-13 0 -22.5 9.5t-9.5 22.5v320q0 13 9.5 22.5t22.5 9.5h384q13 0 22.5 -9.5t9.5 -22.5v-128v-64zM192 64h64v96h-64v-96zM64 78q0 -6 4 -10t10 -4h50v96h-64v-82zM384 306q0 6 -4 10t-10 4h-292q-6 0 -10 -4t-4 -10v-82
h64v96h64v-96h64v96h64v-96h64v82zM384 160h-64v-96h50q6 0 10 4t4 10v82z" />
            <glyph glyph-name="attach-file" unicode="&#xf169;" horiz-adv-x="352"
                   d="M192 -64h-32q-66 0 -113 47t-47 113v64v96v80q0 46 33 79t79 33h32q46 0 79 -33t33 -79v-16v-160v-32q0 -27 -18.5 -45.5t-45.5 -18.5h-32q-27 0 -45.5 18.5t-18.5 45.5v192h64v-149q0 -18 3.5 -30.5t9.5 -12.5h6q6 0 9.5 12.5t3.5 30.5v149v16q0 20 -14 34t-34 14h-32
q-20 0 -34 -14t-14 -34v-80v-96v-64q0 -40 28 -68t68 -28h32q40 0 68 28t28 68v160h64v-160q0 -66 -47 -113t-113 -47z" />
            <glyph glyph-name="paperclip" unicode="&#xf16a;" horiz-adv-x="442"
                   d="M409 228l-128 -128l-24 -23q-19 -19 -46 -19t-47 19l-23 23q-19 20 -19 47t19 46l140 140l46 -47l-108 -108q-13 -13 -19.5 -25t-2.5 -15l5 -5q3 -4 15 2.5t25 19.5l32 32l88 88q14 14 14 34.5t-14 35.5l-23 23q-15 14 -35.5 14t-34.5 -14l-58 -58l-116 -117
q-29 -28 -29 -69t29 -70l23 -23q29 -29 70 -29t69 29l117 116l46 -47l-116 -116q-48 -48 -116 -48t-117 48l-23 23q-48 49 -48 117t48 116l47 46l128 128q33 34 81 34t81 -34l24 -23q33 -34 33 -81.5t-33 -81.5z" />
            <glyph glyph-name="link-intact" unicode="&#xf16b;" horiz-adv-x="470"
                   d="M438 215l-90 -91q-33 -32 -79 -32t-79 32l-11 12l45 45l11 -12q14 -13 34 -13t34 13l90 91q14 14 14 33.5t-14 33.5l-23 23q-14 14 -33.5 14t-33.5 -14l-12 -12l-45 45l12 12q32 32 78.5 32t78.5 -32l23 -23q32 -33 32 -79t-32 -78zM291 248l-45 -45l-11 12
q-14 13 -33.5 13t-33.5 -13l-90 -91q-14 -14 -14 -33.5t14 -33.5l22 -23q14 -14 34 -14t34 14l11 12l45 -45l-11 -12q-33 -32 -79 -32t-79 32l-22 23q-33 33 -33 79t33 78l90 91q32 32 78.5 32t78.5 -32z" />
            <glyph glyph-name="link" unicode="&#xf16c;" horiz-adv-x="497"
                   d="M478 54l-92 -91q-19 -19 -46 -19t-46 19l-69 68q-19 19 -19 46t19 46l23 23l-45 46l-23 -23q-19 -19 -46 -19t-46 19l-69 69q-19 19 -19 46t19 46l92 91q19 19 46 19t46 -19l68 -68q19 -19 19 -46t-19 -46l-23 -23l46 -46l23 23q19 19 46 19t46 -19l69 -69q19 -19 19 -46
t-19 -46zM214 295q11 12 0 23l-46 46q-11 12 -23 0l-69 -69q-11 -11 0 -23l46 -46q12 -11 23 0l12 12l-12 11q-11 12 0 23l23 23q12 12 23 0l12 -11zM420 112l-45 46q-12 11 -23 0l-12 -12l12 -11q11 -12 0 -23l-23 -23q-12 -12 -23 0l-12 11l-11 -11q-12 -12 0 -23l46 -46
q11 -12 23 0l68 69q12 11 0 23z" />
            <glyph glyph-name="link-broken" unicode="&#xf16d;" horiz-adv-x="482"
                   d="M439 219l-42 42l42 43l43 -43zM306 299l64 64l43 -43l-64 -64zM269 389l42 43l43 -43l-43 -42zM285 320l-43 -43l-64 64q-9 9 -21.5 9t-21.5 -9l-42 -42q-9 -9 -9 -21.5t9 -21.5l64 -64l-43 -43l-85 86q-18 17 -18 42t18 43l85 85q18 18 43 18t42 -18zM85 123l-42 -43
l-43 43l43 42zM178 85l-64 -64l-43 43l64 64zM213 -5l-42 -43l-43 43l43 42zM242 107l64 -64q9 -9 21.5 -9t21.5 9l42 42q9 9 9 21.5t-9 21.5l-64 64l43 43l85 -86q18 -17 18 -42t-18 -43l-85 -85q-18 -18 -43 -18t-42 18l-86 85z" />
            <glyph glyph-name="indent-increase" unicode="&#xf16e;"
                   d="M0 -32v64h512v-64h-512zM224 160h288v-64h-288v64zM224 288h288v-64h-288v64zM0 288l160 -96l-160 -96v192zM0 416h512v-64h-512v64z" />
            <glyph glyph-name="indent-decrease" unicode="&#xf16f;"
                   d="M0 -32v64h512v-64h-512zM224 160h288v-64h-288v64zM224 288h288v-64h-288v64zM0 192l160 96v-192zM0 416h512v-64h-512v64z" />
            <glyph glyph-name="align-justify" unicode="&#xf170;"
                   d="M0 -32v64h512v-64h-512zM0 416h512v-64h-512v64zM512 224h-512v64h512v-64zM512 96h-512v64h512v-64z" />
            <glyph glyph-name="align-left" unicode="&#xf171;"
                   d="M0 -32v64h512v-64h-512zM0 416h512v-64h-512v64zM320 224h-320v64h320v-64zM320 96h-320v64h320v-64z" />
            <glyph glyph-name="align-center" unicode="&#xf172;"
                   d="M0 416h512v-64h-512v64zM0 -32v64h512v-64h-512zM416 288v-64h-320v64h320zM96 96v64h320v-64h-320z" />
            <glyph glyph-name="align-right" unicode="&#xf173;"
                   d="M0 -32v64h512v-64h-512zM192 160h320v-64h-320v64zM192 288h320v-64h-320v64zM0 416h512v-64h-512v64z" />
            <glyph glyph-name="list-numbered" unicode="&#xf174;"
                   d="M160 -32v64h352v-64h-352zM160 224h352v-64h-352v64zM160 416h352v-64h-352v64zM0 -64v32h64v32v32h-32h-32v32h32h64v-32v-32v-32v-32h-32h-64zM0 160h32v32h32v-32h32v-32h-96v32zM0 224v32h96v-32v-32h-32v32h-64zM32 320h-32v32h32v64h-32v32h32h32v-96h32v-32h-32
h-32z" />
            <glyph glyph-name="list-bulleted" unicode="&#xf175;"
                   d="M128 -32v64h384v-64h-384zM128 160h384v-64h-384v64zM128 288h384v-64h-384v64zM128 416h384v-64h-384v64zM32 -32q-13 0 -22.5 9.5t-9.5 22.5t9.5 22.5t22.5 9.5t22.5 -9.5t9.5 -22.5t-9.5 -22.5t-22.5 -9.5zM32 96q-13 0 -22.5 9.5t-9.5 22.5t9.5 22.5t22.5 9.5
t22.5 -9.5t9.5 -22.5t-9.5 -22.5t-22.5 -9.5zM32 224q-13 0 -22.5 9.5t-9.5 22.5t9.5 22.5t22.5 9.5t22.5 -9.5t9.5 -22.5t-9.5 -22.5t-22.5 -9.5zM32 352q-13 0 -22.5 9.5t-9.5 22.5t9.5 22.5t22.5 9.5t22.5 -9.5t9.5 -22.5t-9.5 -22.5t-22.5 -9.5z" />
            <glyph glyph-name="list" unicode="&#xf176;"
                   d="M496 0h-352q-7 0 -11.5 4.5t-4.5 11.5v32q0 7 4.5 11.5t11.5 4.5h352q7 0 11.5 -4.5t4.5 -11.5v-32q0 -7 -4.5 -11.5t-11.5 -4.5zM496 160h-352q-7 0 -11.5 4.5t-4.5 11.5v32q0 7 4.5 11.5t11.5 4.5h352q7 0 11.5 -4.5t4.5 -11.5v-32q0 -7 -4.5 -11.5t-11.5 -4.5z
M496 320h-352q-7 0 -11.5 4.5t-4.5 11.5v32q0 7 4.5 11.5t11.5 4.5h352q7 0 11.5 -4.5t4.5 -11.5v-32q0 -7 -4.5 -11.5t-11.5 -4.5zM48 0h-32q-7 0 -11.5 4.5t-4.5 11.5v32q0 7 4.5 11.5t11.5 4.5h32q7 0 11.5 -4.5t4.5 -11.5v-32q0 -7 -4.5 -11.5t-11.5 -4.5zM48 160h-32
q-7 0 -11.5 4.5t-4.5 11.5v32q0 7 4.5 11.5t11.5 4.5h32q7 0 11.5 -4.5t4.5 -11.5v-32q0 -7 -4.5 -11.5t-11.5 -4.5zM48 320h-32q-7 0 -11.5 4.5t-4.5 11.5v32q0 7 4.5 11.5t11.5 4.5h32q7 0 11.5 -4.5t4.5 -11.5v-32q0 -7 -4.5 -11.5t-11.5 -4.5z" />
            <glyph glyph-name="emoticon" unicode="&#xf177;"
                   d="M256 -64q-106 0 -181 75t-75 181t75 181t181 75t181 -75t75 -181t-75 -181t-181 -75zM176 320q-20 0 -34 -14t-14 -34t14 -34t34 -14t34 14t14 34t-14 34t-34 14zM336 320q-20 0 -34 -14t-14 -34t14 -34t34 -14t34 14t14 34t-14 34t-34 14zM366 160q-17 -29 -46 -46.5
t-64 -17.5t-64 17.5t-46 46.5h-70q20 -57 69 -92.5t111 -35.5t111 35.5t69 92.5h-70z" />
            <glyph glyph-name="quote-right" unicode="&#xf178;"
                   d="M512 224q0 -46 -10.5 -83t-27.5 -59.5t-37.5 -39.5t-41 -24.5t-37.5 -12t-27 -5.5h-11v64q4 0 12 1t27.5 7.5t35.5 19t31 38.5t20 62h-94q-13 0 -22.5 9.5t-9.5 22.5v128q0 13 9.5 22.5t22.5 9.5h128q13 0 22.5 -9.5t9.5 -22.5v-128zM0 0v64q4 0 12 1t27.5 7.5t35.5 19
t31 38.5t20 62h-94q-13 0 -22.5 9.5t-9.5 22.5v128q0 13 9.5 22.5t22.5 9.5h128q13 0 22.5 -9.5t9.5 -22.5v-128q0 -46 -10.5 -83t-27.5 -59.5t-37.5 -39.5t-41 -24.5t-37.5 -12t-27 -5.5h-11z" />
            <glyph glyph-name="code" unicode="&#xf179;"
                   d="M512 192q0 -13 -9 -22q-1 -2 -7 -5l-88 -90q-9 -9 -21.5 -9t-21 8.5t-8.5 21t9 21.5l74 75l-74 75q-9 9 -9 21t8.5 21t21 9t21.5 -9l88 -90q5 -3 8 -5q9 -9 8 -22zM75 192l76 -76q9 -9 9 -22t-9 -22t-21.5 -9t-21.5 9l-92 92q-5 3 -7 5q-9 9 -9 23q-1 14 9 23q2 2 8 5
l91 92q9 9 21.5 9t21.5 -9t9 -22t-9 -22z" />
            <glyph glyph-name="code-working" unicode="&#xf17a;"
                   d="M503 170q-1 -2 -7 -5l-88 -90q-9 -9 -21.5 -9t-21 8.5t-8.5 21t9 21.5l74 75l-74 75q-9 9 -9 21t8.5 21t21 9t21.5 -9l88 -90q5 -3 8 -5q9 -9 8 -22q0 -13 -9 -22zM321.5 160q-13.5 0 -22.5 9.5t-9 22.5t9 22.5t22.5 9.5t23 -9.5t9.5 -22.5t-9.5 -22.5t-23 -9.5zM193 160
q-13 0 -22.5 9.5t-9.5 22.5t9.5 22.5t22.5 9.5t22.5 -9.5t9.5 -22.5t-9.5 -22.5t-22.5 -9.5zM75 192l76 -76q9 -9 9 -22t-9 -22t-21.5 -9t-21.5 9l-92 92q-5 3 -7 5q-9 9 -9 23q-1 14 9 23q2 2 8 5l91 92q9 9 21.5 9t21.5 -9t9 -22t-9 -22z" />
            <glyph glyph-name="code-unfold" unicode="&#xf17b;"
                   d="M503 170q-1 -2 -7 -5l-88 -90q-9 -9 -21.5 -9t-21 9t-8.5 21t9 21l74 75l-74 75q-9 9 -9 21.5t8.5 21t21 8.5t21.5 -9l88 -90q5 -2 8 -5q9 -9 8 -22q0 -13 -9 -22zM161 -1l129 386h64l-129 -386h-64zM75 192l76 -76q9 -9 9 -22t-9 -22t-21.5 -9t-21.5 9l-92 92q-5 3 -7 5
q-9 9 -9 23q-1 14 9 23q2 2 8 5l91 92q9 9 21.5 9t21.5 -9t9 -22t-9 -22z" />
            <glyph glyph-name="chevron-right" unicode="&#xf17c;" horiz-adv-x="288"
                   d="M288 192q1 -15 -10 -26q-2 -2 -8 -5l-211 -211q-10 -10 -24.5 -10t-24.5 10t-10 24t10 24l194 194l-194 194q-10 10 -10 24t10 24t24.5 10t24.5 -10l210 -210q7 -4 9 -6q11 -11 10 -26z" />
            <glyph glyph-name="chevron-left" unicode="&#xf17d;" horiz-adv-x="288"
                   d="M278 387l-194 -195l194 -196q10 -10 10 -24t-10 -24.5t-24.5 -10.5t-24.5 10l-210 213q-7 3 -9 6q-11 11 -10 26q-1 15 10 26q2 2 8 6l211 213q10 10 24.5 10t24.5 -10.5t10 -24.5t-10 -25z" />
            <glyph glyph-name="chevron-left-mini" unicode="&#xf17e;" horiz-adv-x="189"
                   d="M181 300l-107 -108l107 -108q8 -9 8 -21.5t-8.5 -21.5t-21 -9t-21.5 9l-122 124q-5 3 -7 5q-9 9 -9 22q-1 14 9 23q2 2 7 5l122 123q9 9 21.5 9t21 -9t8.5 -21.5t-8 -21.5z" />
            <glyph glyph-name="chevron-right-mini" unicode="&#xf17f;" horiz-adv-x="192"
                   d="M192 192q0 -14 -9 -23q-2 -2 -8 -5l-123 -123q-9 -9 -21.5 -9t-21.5 9t-9 21.5t9 21.5l108 108l-108 108q-9 9 -9 21.5t9 21.5t21.5 9t21.5 -9l123 -123q6 -3 8 -5q9 -9 9 -23z" />
            <glyph glyph-name="chevron-up" unicode="&#xf180;" horiz-adv-x="453"
                   d="M444 73q-9 -9 -22 -9t-22 9l-174 172l-173 -172q-9 -9 -22 -9t-22 9t-9 21.5t9 21.5l189 188q3 5 5 7q10 10 24 9q13 0 23 -9q2 -2 5 -7l189 -188q9 -9 9 -21.5t-9 -21.5z" />
            <glyph glyph-name="chevron-down" unicode="&#xf181;" horiz-adv-x="453"
                   d="M444 268l-189 -188q-3 -5 -5 -7q-10 -10 -24 -9q-13 0 -23 9q-2 2 -5 7l-189 188q-9 9 -9 21.5t9 21.5t22 9t22 -9l173 -172l174 172q9 9 22 9t22 -9t9 -21.5t-9 -21.5z" />
            <glyph glyph-name="chevron-up-mini" unicode="&#xf182;" horiz-adv-x="320"
                   d="M311 106q-9 -9 -21.5 -9t-21.5 9l-108 107l-108 -107q-9 -9 -21.5 -9t-21.5 9t-9 21.5t9 21.5l124 122q3 5 5 7q9 9 22 9q14 0 23 -9q2 -2 5 -7l123 -122q9 -9 9 -21.5t-9 -21.5z" />
            <glyph glyph-name="chevron-down-mini" unicode="&#xf183;" horiz-adv-x="320"
                   d="M311 235l-123 -122q-3 -5 -5 -7q-9 -9 -23 -9q-13 0 -22 9q-2 2 -5 7l-124 122q-9 9 -9 21.5t9 21.5t21.5 9t21.5 -9l108 -107l108 107q9 9 21.5 9t21.5 -9t9 -21.5t-9 -21.5z" />
            <glyph glyph-name="arrow-left" unicode="&#xf184;"
                   d="M480 160h-359l91 -74q9 -9 9 -21.5t-8.5 -21t-21 -8.5t-21.5 9l-145 117q-11 3 -18 11.5t-7 19.5t7 19.5t17 11.5l146 117q9 9 21.5 9t21 -8.5t8.5 -21t-9 -21.5l-91 -74h359q13 0 22.5 -9.5t9.5 -22.5t-9.5 -22.5t-22.5 -9.5z" />
            <glyph glyph-name="arrow-right" unicode="&#xf185;"
                   d="M512 192q0 -11 -7 -19.5t-18 -11.5l-145 -117q-9 -9 -21.5 -9t-21 8.5t-8.5 21t9 21.5l91 74h-359q-13 0 -22.5 9.5t-9.5 22.5t9.5 22.5t22.5 9.5h359l-91 74q-9 9 -9 21.5t8.5 21t21 8.5t21.5 -9l146 -117q10 -3 17 -11.5t7 -19.5z" />
            <glyph glyph-name="arrow-up" unicode="&#xf186;" horiz-adv-x="320"
                   d="M311 235.5q-9 -8.5 -21.5 -8.5t-21.5 9l-75 91v-359q0 -13 -9.5 -22.5t-23 -9.5t-23.5 9.5t-10 22.5v359l-75 -91q-9 -9 -21.5 -9t-21.5 8.5t-9 21t9 21.5l120 145q2 11 11 18t20 7t19.5 -7t11.5 -18l120 -145q9 -9 9 -21.5t-9 -21z" />
            <glyph glyph-name="arrow-down" unicode="&#xf187;" horiz-adv-x="320"
                   d="M311 106l-120 -145q-3 -11 -11.5 -18t-19.5 -7t-20 7t-11 18l-120 145q-9 9 -9 21.5t9 21t21.5 8.5t21.5 -9l75 -91v359q0 13 10 22.5t23.5 9.5t23 -9.5t9.5 -22.5v-359l75 91q9 9 21.5 9t21.5 -8.5t9 -21t-9 -21.5z" />
            <glyph glyph-name="dropdown" unicode="&#xf188;"
                   d="M256 -64q-106 0 -181 75t-75 181t75 181t181 75t181 -75t75 -181t-75 -181t-181 -75zM128 256l128 -160l128 160h-256z" />
            <glyph glyph-name="dropup" unicode="&#xf189;"
                   d="M256 448q106 0 181 -75t75 -181t-75 -181t-181 -75t-181 75t-75 181t75 181t181 75zM384 128l-128 160l-128 -160h256z" />
            <glyph glyph-name="dropright" unicode="&#xf18a;"
                   d="M512 192q0 -106 -75 -181t-181 -75t-181 75t-75 181t75 181t181 75t181 -75t75 -181zM192 64l160 128l-160 128v-256z" />
            <glyph glyph-name="dropleft" unicode="&#xf18b;"
                   d="M0 192q0 106 75 181t181 75t181 -75t75 -181t-75 -181t-181 -75t-181 75t-75 181zM320 320l-160 -128l160 -128v256z" />
            <glyph glyph-name="sort-vertical" unicode="&#xf18c;" horiz-adv-x="256"
                   d="M128 416l128 -160h-256zM128 -32l-128 160h256z" />
            <glyph glyph-name="triangle-left" unicode="&#xf18d;" horiz-adv-x="160"
                   d="M0 192l160 128v-256z" />
            <glyph glyph-name="triangle-right" unicode="&#xf18e;" horiz-adv-x="155"
                   d="M155 192l-155 -124v248z" />
            <glyph glyph-name="triangle-down" unicode="&#xf18f;" horiz-adv-x="256"
                   d="M128 112l-128 160h256z" />
            <glyph glyph-name="triangle-up" unicode="&#xf190;" horiz-adv-x="256"
                   d="M128 272l128 -160h-256z" />
            <glyph glyph-name="check-circle" unicode="&#xf191;"
                   d="M256 -64q-106 0 -181 75t-75 181t75 181t181 75t181 -75t75 -181t-75 -181t-181 -75zM404.5 276.5q-8.5 8.5 -21 8.5t-21.5 -9l-138 -136l-42 40q-9 9 -21.5 9t-21 -8.5t-8.5 -21t9 -21.5l57 -56q3 -5 5 -6q9 -9 22 -9q14 0 23 9q2 2 5 7l152 151q9 9 9 21.5t-8.5 21z
" />
            <glyph glyph-name="check" unicode="&#xf192;" horiz-adv-x="450"
                   d="M441 316l-251 -281q-3 -6 -7 -10q-9 -10 -23 -9q-13 0 -23 9q-2 2 -4 7l-124 122q-9 8 -9 20.5t9 21.5t21.5 9t21.5 -9l107 -105l239 268q9 9 21.5 9t21.5 -9t9 -21.5t-9 -21.5z" />
            <glyph glyph-name="check-mini" unicode="&#xf193;" horiz-adv-x="288"
                   d="M279 251l-156 -154q-3 -5 -5 -8q-9 -9 -23 -8q-13 -1 -23 8q-1 2 -4 7l-59 57q-9 9 -9 21.5t9 21.5t21.5 9t21.5 -9l43 -41l141 139q9 9 21.5 9t21.5 -9t9 -21.5t-9 -21.5z" />
            <glyph glyph-name="close" unicode="&#xf194;" horiz-adv-x="416"
                   d="M254 192l157 -158q12 -11 0 -22l-23 -23q-11 -12 -22 0l-158 157l-158 -157q-11 -12 -22 0l-23 23q-12 11 0 22l157 158l-157 158q-12 11 0 22l23 23q11 12 22 0l158 -157l158 157q11 12 22 0l23 -23q12 -11 0 -22z" />
            <glyph glyph-name="close-mini" unicode="&#xf195;" horiz-adv-x="288"
                   d="M190 192l93 -93q12 -12 0 -23l-23 -23q-11 -12 -22 0l-94 93l-93 -93q-12 -12 -23 0l-23 23q-12 11 0 22l93 94l-93 93q-12 12 0 23l23 23q11 12 22 0l94 -93l93 93q12 12 23 0l23 -23q12 -11 0 -22z" />
            <glyph glyph-name="plus-circle" unicode="&#xf196;"
                   d="M256 -64q-106 0 -181 75t-75 181t75 181t181 75t181 -75t75 -181t-75 -181t-181 -75zM384 208q0 7 -4.5 11.5t-11.5 4.5h-80v80q0 7 -4.5 11.5t-11.5 4.5h-32q-7 0 -11.5 -4.5t-4.5 -11.5v-80h-80q-7 0 -11.5 -4.5t-4.5 -11.5v-32q0 -7 4.5 -11.5t11.5 -4.5h80v-80
q0 -7 4.5 -11.5t11.5 -4.5h32q7 0 11.5 4.5t4.5 11.5v80h80q7 0 11.5 4.5t4.5 11.5v32z" />
            <glyph glyph-name="plus" unicode="&#xf197;" horiz-adv-x="448"
                   d="M432 160h-176v-176q0 -7 -4.5 -11.5t-11.5 -4.5h-32q-7 0 -11.5 4.5t-4.5 11.5v176h-176q-7 0 -11.5 4.5t-4.5 11.5v32q0 7 4.5 11.5t11.5 4.5h176v176q0 7 4.5 11.5t11.5 4.5h32q7 0 11.5 -4.5t4.5 -11.5v-176h176q7 0 11.5 -4.5t4.5 -11.5v-32q0 -7 -4.5 -11.5
t-11.5 -4.5z" />
            <glyph glyph-name="minus-circle" unicode="&#xf198;"
                   d="M256 -64q-106 0 -181 75t-75 181t75 181t181 75t181 -75t75 -181t-75 -181t-181 -75zM384 208q0 7 -4.5 11.5t-11.5 4.5h-224q-7 0 -11.5 -4.5t-4.5 -11.5v-32q0 -7 4.5 -11.5t11.5 -4.5h224q7 0 11.5 4.5t4.5 11.5v32z" />
            <glyph glyph-name="minus" unicode="&#xf199;" horiz-adv-x="448"
                   d="M16 224h416q7 0 11.5 -4.5t4.5 -11.5v-32q0 -7 -4.5 -11.5t-11.5 -4.5h-416q-7 0 -11.5 4.5t-4.5 11.5v32q0 7 4.5 11.5t11.5 4.5z" />
            <glyph glyph-name="alert-circle" unicode="&#xf19a;"
                   d="M256 -64q-106 0 -181 75t-75 181t75 181t181 75t181 -75t75 -181t-75 -181t-181 -75zM288 336q0 7 -4.5 11.5t-11.5 4.5h-32q-7 0 -11.5 -4.5t-4.5 -11.5v-160q0 -7 4.5 -11.5t11.5 -4.5h32q7 0 11.5 4.5t4.5 11.5v160zM288 80q0 7 -4.5 11.5t-11.5 4.5h-32
q-7 0 -11.5 -4.5t-4.5 -11.5v-32q0 -7 4.5 -11.5t11.5 -4.5h32q7 0 11.5 4.5t4.5 11.5v32z" />
            <glyph glyph-name="alert" unicode="&#xf19b;" horiz-adv-x="64"
                   d="M0 -32v64h64v-64h-64zM48 96h-32q-7 0 -11.5 4.5t-4.5 11.5v288q0 7 4.5 11.5t11.5 4.5h32q7 0 11.5 -4.5t4.5 -11.5v-288q0 -7 -4.5 -11.5t-11.5 -4.5z" />
            <glyph glyph-name="help-circle" unicode="&#xf19c;"
                   d="M256 -64q-106 0 -181 75t-75 181t75 181t181 75t181 -75t75 -181t-75 -181t-181 -75zM224 32h64v64h-64v-64zM256 352q-51 0 -79 -43q-8 -10 -8 -21q0 -13 9.5 -22.5t22.5 -9.5t22.5 9.5t9.5 22.5h23q13 0 22.5 -9.5t9.5 -22.5t-9.5 -22.5t-22.5 -9.5q-4 0 -9 -2t-14 -26
t-9 -68h64v38q28 10 46 34.5t18 55.5q0 40 -28 68t-68 28z" />
            <glyph glyph-name="help" unicode="&#xf19d;" horiz-adv-x="250"
                   d="M225 214q-5 -8 -12 -16q-1 0 -1.5 -0.5l-1.5 -1.5q-8 -8 -22 -17q-1 0 -1.5 -0.5l-0.5 -0.5q-16 -10 -32 -18v-64h-64q0 100 47 130q2 1 10 6t9.5 6t7.5 5.5t8 7t5.5 7t5 8.5t2.5 10t1 12q0 27 -18.5 45.5t-45.5 18.5q-21 0 -38 -13t-23 -33q-9 -18 -29 -18
q-13 0 -22.5 9.5t-9.5 22.5q0 6 2 12q14 37 46.5 60.5t73.5 23.5q53 0 90.5 -37.5t37.5 -90.5q0 -39 -25 -74zM154 -32h-64v64h64v-64z" />
            <glyph glyph-name="info-circle" unicode="&#xf19e;"
                   d="M256 -64q-106 0 -181 75t-75 181t75 181t181 75t181 -75t75 -181t-75 -181t-181 -75zM240 384q-20 0 -34 -14t-14 -34t14 -34t34 -14t34 14t14 34t-14 34t-34 14zM320 32h-32v144v32q0 7 -4.5 11.5t-11.5 4.5h-32h-32q-7 0 -11.5 -4.5t-4.5 -11.5v-32q0 -7 4.5 -11.5
t11.5 -4.5h16v-128h-32v-32h48h32h48v32z" />
            <glyph glyph-name="info" unicode="&#xf19f;" horiz-adv-x="192"
                   d="M176 -64h-64h-32h-64q-16 0 -16 8v16q0 8 16 8h48v224h-48q-7 0 -11.5 4.5t-4.5 11.5v32q0 7 4.5 11.5t11.5 4.5h64h32q7 0 11.5 -4.5t4.5 -11.5v-32v-240h48q16 0 16 -8v-16q0 -8 -16 -8zM64 320q-27 0 -45.5 18.5t-18.5 45.5t18.5 45.5t45.5 18.5t45.5 -18.5
t18.5 -45.5t-18.5 -45.5t-45.5 -18.5z" />
            <glyph glyph-name="warning" unicode="&#xf1a0;"
                   d="M0 -32l256 448l256 -448h-512zM288 272q0 7 -4.5 11.5t-11.5 4.5h-32q-7 0 -11.5 -4.5t-4.5 -11.5v-128q0 -7 4.5 -11.5t11.5 -4.5h32q7 0 11.5 4.5t4.5 11.5v128zM224 96v-64h64v64h-64z" />
            <glyph glyph-name="heart" unicode="&#xf1a1;"
                   d="M506 249q-10 -35 -40 -77.5t-64.5 -77t-68 -64t-55.5 -45.5l-22 -17q-9 6 -23.5 17.5t-53 44.5t-70 65.5t-62.5 75.5t-41 78q-6 19 -6 39q0 52 44.5 90t99.5 38q42 0 70 -24t35 -48l7 -24q14 39 44 67.5t68 28.5q55 0 99.5 -38t44.5 -90q0 -20 -6 -39z" />
            <glyph glyph-name="heart-outline" unicode="&#xf1a2;"
                   d="M506 249q-10 -35 -40 -77.5t-64.5 -77t-68 -64t-55.5 -45.5l-22 -17q-9 6 -23.5 17.5t-53 44.5t-70 65.5t-62.5 75.5t-41 78q-6 19 -6 39q0 52 44.5 90t99.5 38q42 0 70 -24t35 -48l7 -24q14 39 44 67.5t68 28.5q55 0 99.5 -38t44.5 -90q0 -20 -6 -39zM384 352
q-19 6 -39 -4.5t-35.5 -30.5t-28 -41t-18.5 -37l-7 -15q-2 6 -6.5 16t-18 34.5t-28 42.5t-35 29.5t-40.5 5.5q-27 -8 -43 -25.5t-19.5 -42t12.5 -57t50 -67.5q35 -36 63 -59t43 -31t22 -6q6 -2 21 6.5t43.5 31.5t63.5 58q34 34 49.5 66.5t12 57t-19.5 42t-42 26.5z" />
            <glyph glyph-name="star" unicode="&#xf1a3;"
                   d="M256 448l80 -176l176 -16l-133 -134l36 -186l-160 97l-159 -97l37 186l-133 134l176 16z" />
            <glyph glyph-name="star-half" unicode="&#xf1a4;"
                   d="M379 122l36 -186l-160 97l-159 -97l37 186l-133 134l176 16l80 176l80 -176l176 -16zM288 224l-32 96v-224l96 -64l-32 96l64 96h-96z" />
            <glyph glyph-name="star-outline" unicode="&#xf1a5;"
                   d="M379 122l36 -186l-160 97l-159 -97l37 186l-133 134l176 16l80 176l80 -176l176 -16zM288 224l-32 96l-32 -96h-96l64 -96l-32 -96l96 64l96 -64l-32 96l64 96h-96z" />
            <glyph glyph-name="thumb-up" unicode="&#xf1a6;"
                   d="M448 3q0 -26 -18.5 -45t-45.5 -19h-224q-37 0 -55 32h-57q-20 0 -34 14t-14 34v192q0 20 14 34t34 14h40q39 51 43 57l82 110q19 19 45.5 19t45.5 -19t19 -45.5t-19 -45.5l-32 -44h176q27 0 45.5 -18.5t18.5 -45.5z" />
            <glyph glyph-name="thumb-down" unicode="&#xf1a7;"
                   d="M448 93h-176l32 -44q19 -19 19 -45.5t-19 -45.5t-45.5 -19t-45.5 19q-59 79 -82 110q-4 5 -43 57h-40q-20 0 -34 14t-14 34v192q0 20 14 34t34 14h57q18 32 55 32h224q27 0 45.5 -19t18.5 -45l64 -224q0 -27 -18.5 -45.5t-45.5 -18.5z" />
            <glyph glyph-name="small-point" unicode="&#xf1a8;" horiz-adv-x="192"
                   d="M96 288q40 0 68 -28t28 -68t-28 -68t-68 -28t-68 28t-28 68t28 68t68 28z" />
            <glyph glyph-name="medium-point" unicode="&#xf1a9;" horiz-adv-x="256"
                   d="M128 320q53 0 90.5 -37.5t37.5 -90.5t-37.5 -90.5t-90.5 -37.5t-90.5 37.5t-37.5 90.5t37.5 90.5t90.5 37.5z" />
            <glyph glyph-name="large-point" unicode="&#xf1aa;" horiz-adv-x="320"
                   d="M160 344q66 0 113 -47t47 -113t-47 -113t-113 -47t-113 47t-47 113t47 113t113 47z" />
        </font>
</defs>
</svg>
